<svg xmlns="http://www.w3.org/2000/svg" aria-hidden="true" style="position:absolute;width:0;height:0;overflow:hidden"><defs><symbol id="icon-client-1" viewBox="0 0 28 32"><path d="m4.08 0 4.78 4.55H0v22.04h23.15v-8.43l4.77 4.54V0H4.07zm18.86 17.63L9.4 4.74h13.53v12.89zm-4.2 5.74H3.66V8.54h1.07v13.82h14v1zM6.67 30.68l.56-1.16h.46l-.81 1.53v.9h-.42v-.9l-.82-1.52h.47l.56 1.15zm2.07-1.16h.1l.91 2.42h-.43l-.2-.56h-.94l-.2.57h-.43l.91-2.42h.28zm-.44 1.53H9l-.35-1.03-.35 1.03zm2.92-.4-.22.17a.8.8 0 0 0-.17.21.53.53 0 0 0-.06.26.66.66 0 0 0 .37.6c.12.06.25.09.41.09.14 0 .26-.02.38-.07a.95.95 0 0 0 .25-.13l.14.16h.46l-.35-.41a1.03 1.03 0 0 0 .18-.4c.02-.11.03-.22.03-.34h-.35a.97.97 0 0 1-.1.45l-.48-.56.17-.12.17-.15a.57.57 0 0 0 .11-.18.51.51 0 0 0 .05-.2.52.52 0 0 0-.28-.46.64.64 0 0 0-.32-.08.7.7 0 0 0-.33.08c-.1.04-.17.11-.23.2s-.07.2-.07.33c0 .08.01.16.05.24.03.08.08.16.14.24l.06.07zm.2.24.54.63a.62.62 0 0 1-.4.14.45.45 0 0 1-.21-.05.34.34 0 0 1-.14-.14.41.41 0 0 1-.03-.29l.06-.12a.66.66 0 0 1 .13-.14l.05-.03zm.1-.44-.03-.04a1.02 1.02 0 0 1-.1-.16.36.36 0 0 1-.05-.16c0-.05.01-.1.03-.14a.24.24 0 0 1 .23-.14c.08 0 .15.02.2.07s.06.1.06.16a.3.3 0 0 1-.05.17.54.54 0 0 1-.15.14l-.14.1zm4.23.7a.96.96 0 0 1-.13.43c-.08.12-.18.22-.32.3s-.3.1-.5.1a.88.88 0 0 1-.71-.3c-.08-.11-.15-.23-.2-.37-.04-.14-.06-.3-.06-.47v-.2c0-.18.02-.34.07-.48.04-.14.11-.26.2-.36.08-.1.19-.18.3-.23.13-.05.27-.08.42-.08.2 0 .35.04.49.1s.23.18.3.3c.08.13.13.27.14.43h-.41a.77.77 0 0 0-.08-.27.38.38 0 0 0-.16-.17.58.58 0 0 0-.28-.06.52.52 0 0 0-.43.2.75.75 0 0 0-.1.27c-.03.1-.04.21-.04.34v.2c0 .12 0 .24.03.33.02.1.05.19.1.26.04.07.1.12.17.16s.16.06.25.06c.12 0 .22-.02.3-.05.07-.04.12-.1.16-.17a.74.74 0 0 0 .08-.27h.41zm2.3-.35v-.13c0-.19-.01-.35-.06-.5a1.08 1.08 0 0 0-.2-.36.87.87 0 0 0-.32-.24 1 1 0 0 0-.41-.08 1 1 0 0 0-.41.08.88.88 0 0 0-.32.24c-.09.1-.15.22-.2.37-.05.14-.08.3-.08.49v.13c0 .18.03.35.08.5.05.14.12.26.2.36s.2.18.32.24c.13.05.26.08.4.08.16 0 .3-.03.42-.08a.88.88 0 0 0 .31-.24c.1-.1.16-.22.2-.37s.08-.3.08-.49zm-.4-.14v.14c0 .14-.02.26-.05.36-.02.1-.06.2-.11.26a.5.5 0 0 1-.43.22.56.56 0 0 1-.25-.06.53.53 0 0 1-.18-.16c-.05-.07-.1-.16-.12-.26s-.04-.22-.04-.36v-.14c0-.13.01-.25.04-.35.03-.1.07-.2.12-.26a.5.5 0 0 1 .43-.22c.09 0 .17.02.24.06.08.03.14.09.19.16.05.07.09.15.11.26.03.1.04.22.04.35z"/></symbol><symbol id="icon-client-2" viewBox="0 0 25 32"><path d="m10.53 1.8.45.03h.04c.74.06 1.47.17 2.18.34V.4a12.97 12.97 0 0 0-3.16-.4h-.26C8.26 0 6.74.2 5.27.58a18.3 18.3 0 0 0-4.8 1.95v17.48a19.48 19.48 0 0 1 8.4-2.37h.05l.66-.02v-1.79a21.16 21.16 0 0 0-6.71 1.18l-.63.2V3.6l.27-.13A17.4 17.4 0 0 1 9.78 1.8h.28c.13 0 .26 0 .39.02h.08zm3.1 1.8a19.35 19.35 0 0 0 5.95-.56c1.6-.4 3.13-1 4.57-1.78v17.16c-1.5.88-3.11 1.53-4.8 1.95-1.47.38-2.99.58-4.5.58-1.16.01-2.31-.12-3.43-.4V3.27a14.28 14.28 0 0 0 2.21.34zm8.74.14-.63.21c-.57.2-1.15.36-1.73.52a21.1 21.1 0 0 1-6.31.63l-.5-.04v14.02l.43.04a16.57 16.57 0 0 0 5.29-.48 17.1 17.1 0 0 0 3.18-1.14l.27-.13V3.74zM1.68 25.98A.91.91 0 0 0 1 25.7c-.14 0-.27.02-.4.07a.91.91 0 0 0-.51.52c-.05.12-.07.25-.07.39V29c0 .17.02.33.09.48a.81.81 0 0 0 .55.48c.12.03.23.05.35.05a.97.97 0 0 0 .9-.61.95.95 0 0 0 .07-.37v-.26h-.61v.2c0 .07-.01.15-.04.21a.36.36 0 0 1-.09.13.37.37 0 0 1-.12.07.42.42 0 0 1-.13.02.31.31 0 0 1-.29-.12.55.55 0 0 1-.08-.32V26.8c0-.12.02-.24.08-.35.03-.05.07-.1.12-.12s.12-.03.17-.02c.06 0 .11 0 .16.03s.09.06.12.1c.06.09.1.2.1.31v.2h.6v-.24a1.1 1.1 0 0 0-.28-.73zM5.31 25.95a1.05 1.05 0 0 0-1.38 0c-.1.1-.18.2-.24.33-.06.14-.09.3-.09.45v2.24c0 .16.03.31.1.46a.9.9 0 0 0 .23.31c.1.09.2.15.32.2a1.08 1.08 0 0 0 .73 0c.12-.05.23-.11.33-.2.1-.09.18-.2.23-.31.06-.15.1-.3.09-.46v-2.24a1.02 1.02 0 0 0-.32-.78zm-.28 3.02a.4.4 0 0 1-.13.32.45.45 0 0 1-.57 0 .4.4 0 0 1-.12-.32v-2.24a.4.4 0 0 1 .12-.32.45.45 0 0 1 .57 0 .4.4 0 0 1 .13.32v2.24zM10.07 29.97v-4.24h-.59l-.77 2.24-.78-2.24h-.59v4.24h.61v-2.58h.01l.6 1.82h.3l.6-1.82v2.58h.61zM13.51 26.03a.84.84 0 0 0-.34-.24 1.36 1.36 0 0 0-.44-.06h-.9v4.24h.6V28.3h.32c.18.01.37-.03.54-.11a.88.88 0 0 0 .33-.33c.07-.11.12-.24.14-.37a3 3 0 0 0-.02-1.08.9.9 0 0 0-.23-.4zm-.3 1.29c-.01.08-.03.15-.07.22a.35.35 0 0 1-.15.15.62.62 0 0 1-.29.05h-.27V26.3h.31c.1 0 .19.02.27.05.06.04.11.1.14.16.04.08.05.16.06.24V27.32zM16.37 25.73h-.5l-.92 4.24h.6l.18-.91h.82l.18.9h.6l-.96-4.23zm-.55 2.75.3-1.54.3 1.54h-.6zM20.28 28.28h-.01l-.92-2.55h-.58v4.24h.6v-2.55h.02l.92 2.55h.57v-4.24h-.6v2.55zM23.97 25.73l-.49 1.69h-.01l-.49-1.69h-.64l.83 2.45v1.79h.6v-1.8l.84-2.44h-.64zM0 31.17h.3v.81h.19v-.81h.29V31H0v.17zM2.45 31l-.38.98h.2l.09-.22h.39l.08.22h.22l-.4-.98h-.2zm-.03.6.13-.37.13.36h-.26zM4.87 31.62h.22v.13a.38.38 0 0 1-.23.08c-.04 0-.08 0-.12-.02l-.09-.07a.41.41 0 0 1-.07-.26c0-.22.1-.33.28-.33.05 0 .1 0 .14.04s.07.07.08.12l.2-.04c-.05-.2-.18-.29-.42-.29a.5.5 0 0 0-.34.13c-.05.05-.1.1-.12.17s-.03.14-.03.2c0 .14.04.27.13.38a.48.48 0 0 0 .38.14c.15 0 .3-.05.41-.16v-.39h-.42v.17zM7.34 31h-.2v.98h.69v-.17h-.5V31zM9.43 31h-.2v.98h.2V31zM11.47 31.66l-.4-.66h-.2v.98h.19v-.64l.4.64h.2V31h-.2v.66zM13.31 31.55h.5v-.17h-.5v-.21h.53V31h-.72v.98h.74v-.16h-.54v-.27zM17.8 31.39h-.4v-.4h-.2v1h.2v-.44h.4v.43h.19V31h-.2v.39zM19.65 31.55h.5v-.17h-.5v-.21h.53V31h-.73v.98h.75v-.16h-.55v-.27zM22.17 31.55c.17-.03.26-.12.26-.28a.24.24 0 0 0-.1-.21.55.55 0 0 0-.29-.06h-.42v.98h.2v-.41h.04c.04 0 .09 0 .12.02s.06.04.07.07l.22.32h.24l-.12-.2a.69.69 0 0 0-.22-.23zm-.2-.14h-.15v-.24h.16c.07 0 .13 0 .2.02l.03.04.01.06-.01.06a.11.11 0 0 1-.04.04.55.55 0 0 1-.2.02zM24.07 31.55h.49v-.17h-.5v-.21h.54V31h-.73v.98h.74v-.16h-.54v-.27z"/></symbol><symbol id="icon-client-3" viewBox="0 0 34 32"><path d="M5.32 31.4h.03l.03.02.17.16c-.13.13-.3.24-.48.3a1.9 1.9 0 0 1-.69.12c-.22 0-.44-.03-.65-.1a1.41 1.41 0 0 1-.48-.3 1.3 1.3 0 0 1-.32-.44A1.49 1.49 0 0 1 2.94 30c.08-.17.2-.32.34-.45.14-.12.32-.22.51-.29a2.07 2.07 0 0 1 1.29 0c.17.05.32.14.46.25l-.14.17a.12.12 0 0 1-.04.03.1.1 0 0 1-.06.02l-.06-.02-.08-.05-.1-.06a1.2 1.2 0 0 0-.35-.1 1.57 1.57 0 0 0-.73.06 1 1 0 0 0-.62.56c-.06.15-.09.3-.09.46 0 .16.03.32.1.46a1.02 1.02 0 0 0 .59.56c.14.05.29.08.44.08.09 0 .18 0 .26-.02a1.07 1.07 0 0 0 .57-.24.13.13 0 0 1 .09-.02zM10.3 30.58c0 .2-.05.39-.12.57-.07.17-.18.32-.33.45s-.32.22-.5.29c-.43.14-.9.14-1.32 0-.19-.07-.36-.17-.5-.3a1.3 1.3 0 0 1-.33-.44 1.47 1.47 0 0 1 0-1.15c.07-.17.18-.32.33-.45.14-.12.31-.22.5-.28a2.1 2.1 0 0 1 1.31 0c.2.06.37.16.51.3a1.32 1.32 0 0 1 .44 1.01zm-.46 0c0-.16-.02-.31-.08-.46a.94.94 0 0 0-.6-.56c-.3-.1-.64-.1-.95 0-.14.05-.26.12-.36.22-.1.1-.19.21-.24.34-.1.3-.1.62 0 .92a.94.94 0 0 0 .6.56c.3.1.64.1.95 0a.97.97 0 0 0 .6-.56c.05-.15.08-.3.08-.46zM13.69 31.06l.04.1.05-.1a.83.83 0 0 1 .06-.1l1.1-1.7c.02-.04.04-.06.06-.06l.1-.01h.32v2.78h-.39v-2.23l-1.1 1.74-.07.06a.16.16 0 0 1-.1.02h-.06c-.03 0-.06 0-.1-.02s-.04-.04-.06-.07l-1.14-1.74v2.23h-.37V29.2H12.45c.02.02.04.03.05.06l1.13 1.71.06.1zM17.83 30.92v1.05h-.43v-2.78h.96c.18 0 .36.02.54.06.13.03.26.1.37.17.1.08.17.17.22.27.05.12.08.24.07.36a.77.77 0 0 1-.31.63 1.1 1.1 0 0 1-.38.19c-.17.04-.34.06-.52.06h-.52zm0-.3h.52c.11 0 .23 0 .33-.04a.73.73 0 0 0 .25-.12.53.53 0 0 0 .2-.42c0-.07-.02-.15-.05-.22s-.08-.14-.15-.19a.94.94 0 0 0-.58-.15h-.52v1.15zM23.62 31.97h-.34c-.03 0-.07 0-.1-.03a.17.17 0 0 1-.05-.06l-.3-.67h-1.46l-.3.67a.16.16 0 0 1-.15.1h-.35l1.3-2.8h.44l1.31 2.8zm-2.13-1.03h1.21l-.51-1.14a1.78 1.78 0 0 1-.1-.26l-.05.15-.04.12-.51 1.13zM25.48 29.2l.07.05 1.88 2.1v-2.16h.39v2.78h-.22a.2.2 0 0 1-.08-.02.22.22 0 0 1-.07-.05l-1.89-2.1v2.17h-.38v-2.78h.23a.2.2 0 0 1 .07.01zM31 30.86v1.1h-.44v-1.1l-1.19-1.67h.39c.03 0 .06 0 .09.02l.06.06.74 1.09a1.78 1.78 0 0 1 .13.24l.06-.12a.95.95 0 0 1 .07-.12l.74-1.1a.26.26 0 0 1 .05-.05.15.15 0 0 1 .1-.03h.39l-1.2 1.68zM13.47 24.52l.57.05c2.91-1.1 5.37-2.93 7.07-5.22s2.58-4.98 2.51-7.7l-3.2-2.74c.65 2.9.35 5.9-.88 8.65s-3.33 5.17-6.07 6.96z"/><path d="M12.33 24.4h.09c2.92-1.78 5.15-4.28 6.4-7.16s1.46-6.02.6-9l-4.57-3.9c1.85 3.2 2.59 6.78 2.14 10.34s-2.06 6.92-4.66 9.71zM27.8 14.86a14.01 14.01 0 0 1-5.36 7.69c-.8.59-1.65 1.11-2.56 1.56 2.21-.55 4.24-1.53 5.93-2.86s3.01-2.98 3.84-4.8l-1.85-1.59z"/><path d="m27.08 14.42-2.64-2.25c-.05 2.57-.9 5.08-2.47 7.27s-3.8 3.98-6.45 5.18h.02c.59 0 1.18-.03 1.77-.09 2.47-.86 4.66-2.24 6.37-4s2.87-3.86 3.4-6.1zM12.71 2.69 9.57 0C6.76.93 4.34 2.56 2.63 4.68S.01 9.3 0 11.88c.01 2.85 1.13 5.6 3.18 7.85s4.93 3.83 8.16 4.52c2.88-3 4.57-6.71 4.81-10.59s-.95-7.72-3.44-10.97zM34.34 14c-.01-3.37-1.58-6.6-4.38-8.99S23.4 1.28 19.44 1.27c-1.83 0-3.64.29-5.34.85l19.25 16.45c.65-1.46 1-3 .99-4.56z"/></symbol><symbol id="icon-client-4" viewBox="0 0 66 32"><path d="M10.2 9.77c-1.86 0-3.37 1.36-3.37 3.04s1.51 3.04 3.37 3.04c1.87 0 3.38-1.36 3.38-3.04s-1.51-3.04-3.37-3.04zM35.1 8.8c-.01-2.33-1.04-4.57-2.87-6.22S27.93.01 25.33 0c-2.58 0-5.06.93-6.89 2.58s-2.86 3.89-2.87 6.22v12.86S35.1 19.7 35.1 8.8zM0 25.88c0 1.62.72 3.17 2 4.32S4.98 32 6.78 32c1.8 0 3.52-.65 4.8-1.8s1.98-2.7 1.99-4.32v-8.95S0 18.3 0 25.88zm6.79 1.6c-.35 0-.7-.1-.99-.27s-.52-.43-.65-.72a1.48 1.48 0 0 1 .38-1.75 1.96 1.96 0 0 1 1.94-.35c.32.13.6.33.8.6A1.5 1.5 0 0 1 8.05 27c-.17.15-.36.27-.58.35s-.45.13-.68.13v-.01zM19.2 24.6v3.33h-.68V24.6h.69zm1.33 1.42v.53h-1.51v-.53h1.51zm.16-1.42v.53h-1.67v-.53h1.67zm3.14 1.58v.16c0 .26-.04.48-.1.68s-.17.38-.3.52c-.12.14-.27.25-.44.32-.18.08-.37.11-.58.11a1.29 1.29 0 0 1-1.02-.43 1.5 1.5 0 0 1-.3-.52 2.1 2.1 0 0 1-.1-.68v-.15c0-.26.03-.49.1-.69.07-.2.17-.37.3-.51.12-.14.27-.25.44-.32.18-.08.37-.12.58-.12.2 0 .4.04.57.12.17.07.32.18.45.32.12.14.22.31.3.51.06.2.1.43.1.69zm-.7.16v-.16c0-.18-.01-.33-.04-.47s-.08-.24-.15-.33-.14-.16-.23-.21c-.09-.05-.19-.07-.3-.07s-.22.02-.31.07a.61.61 0 0 0-.23.2c-.06.1-.1.21-.14.34s-.05.3-.05.47v.16c0 .18.02.33.05.47.03.13.08.25.14.34.07.09.14.16.23.2s.2.08.31.08c.12 0 .22-.03.31-.07s.17-.12.23-.21c.06-.1.1-.2.14-.34.03-.14.04-.3.04-.47zm2.92.71c0-.05 0-.1-.02-.16a.3.3 0 0 0-.1-.13c-.05-.04-.11-.08-.2-.12l-.33-.12c-.15-.05-.3-.1-.43-.17a1.77 1.77 0 0 1-.36-.21.95.95 0 0 1-.24-.29.79.79 0 0 1-.09-.37c0-.14.03-.27.1-.38a.87.87 0 0 1 .25-.3c.11-.07.24-.14.39-.18a1.77 1.77 0 0 1 1.14.06c.18.1.32.21.42.37.1.15.15.33.15.53h-.68c0-.1-.02-.19-.06-.26a.42.42 0 0 0-.18-.18.65.65 0 0 0-.3-.06.7.7 0 0 0-.3.06.4.4 0 0 0-.18.14.35.35 0 0 0-.06.2c0 .06.01.1.04.15.03.05.07.1.13.13l.2.11.3.1c.17.06.33.12.47.2.14.06.25.14.35.22s.16.18.2.3c.05.1.08.22.08.36 0 .14-.03.27-.09.39s-.13.21-.24.29c-.1.08-.24.14-.38.18a1.85 1.85 0 0 1-1.42-.2c-.13-.09-.24-.2-.31-.34s-.12-.3-.12-.49h.69c0 .1.01.2.04.27s.08.13.14.17c.06.04.13.08.21.1.08.02.17.03.27.03.12 0 .22-.02.3-.05a.36.36 0 0 0 .22-.34zm2.64-2.45v3.33h-.68V24.6h.68zm1.03 0v.53H27v-.53h2.72zm2.62 2.8v.53h-1.77v-.54h1.77zm-1.55-2.8v3.33h-.68V24.6h.69zm1.32 1.35v.52h-1.54v-.52h1.54zm.23-1.35v.53h-1.77v-.53h1.77zm.4 0H34c.25 0 .47.03.65.11.18.08.33.19.43.34s.14.33.14.55c0 .18-.03.33-.09.46a.85.85 0 0 1-.25.32c-.1.08-.23.15-.38.2l-.22.11H33.2v-.53h.8c.12 0 .22-.02.3-.07s.14-.1.18-.17a.55.55 0 0 0 .06-.27c0-.1-.02-.2-.06-.28s-.1-.13-.18-.17-.18-.07-.3-.07h-.56v2.8h-.69V24.6zm1.86 3.33-.75-1.49h.72l.77 1.45v.04h-.74zm3.6-1.19h-.84v-.54h.85c.13 0 .23-.02.32-.06.08-.04.14-.1.18-.18s.05-.17.05-.27-.01-.19-.05-.27-.1-.16-.18-.2-.2-.09-.32-.09h-.61v2.8h-.7V24.6h1.3c.27 0 .49.04.68.14a1.02 1.02 0 0 1 .58.95.95.95 0 0 1-.58.92c-.19.09-.41.13-.67.13zm3.96.65v.54H40.4v-.54h1.77zm-1.55-2.8v3.34h-.68V24.6h.68zm1.32 1.36v.52H40.4v-.52h1.54zm.23-1.35v.53h-1.77v-.53h1.77zm1.94 0v3.33h-.69V24.6h.69zm1.02 0v.53h-2.71v-.53h2.71zm2.63 2.8v.53h-1.78v-.54h1.78zm-1.55-2.8v3.33h-.69V24.6h.69zm1.31 1.35v.52h-1.54v-.52h1.55zm.23-1.35v.53h-1.77v-.53h1.77zm.4 0h1.25c.25 0 .47.03.65.11.19.08.33.19.43.34s.15.33.15.55c0 .18-.03.33-.1.46a.85.85 0 0 1-.25.32c-.1.08-.23.15-.38.2l-.22.11H48.6v-.53h.8c.12 0 .22-.02.3-.07s.14-.1.18-.17a.55.55 0 0 0 .06-.27c0-.1-.02-.2-.06-.28s-.1-.13-.18-.17a.67.67 0 0 0-.3-.07h-.56v2.8h-.68V24.6zm1.87 3.33-.76-1.49h.72l.77 1.45v.04h-.73zm2.87-.88-.03-.16a.3.3 0 0 0-.1-.13c-.04-.04-.1-.08-.2-.12l-.32-.12c-.16-.05-.3-.1-.43-.17a1.77 1.77 0 0 1-.36-.21.95.95 0 0 1-.24-.29.79.79 0 0 1-.1-.37.87.87 0 0 1 .35-.67c.12-.09.25-.15.4-.2a1.77 1.77 0 0 1 1.13.07c.19.1.33.21.43.37.1.15.15.33.15.53h-.68c0-.1-.02-.19-.06-.26a.42.42 0 0 0-.18-.18.65.65 0 0 0-.31-.06.7.7 0 0 0-.3.06.4.4 0 0 0-.18.14.35.35 0 0 0-.05.2c0 .06 0 .1.04.15.03.05.07.1.12.13l.21.11c.08.04.18.07.29.1.18.06.34.12.48.2.14.06.25.14.34.22a.84.84 0 0 1 .29.66c0 .14-.03.27-.09.39s-.14.21-.24.29c-.11.08-.24.14-.39.18a1.9 1.9 0 0 1-.98 0c-.16-.05-.3-.11-.44-.2-.13-.09-.23-.2-.3-.34s-.12-.3-.12-.49h.68c0 .1.02.2.05.27s.08.13.14.17c.06.04.13.08.2.1.09.02.18.03.28.03.12 0 .21-.02.29-.05a.36.36 0 0 0 .23-.34z"/></symbol><symbol id="icon-client-5" viewBox="0 0 44 32"><path d="M3.33 26.7c.17.18.27.42.26.67 0 .16-.02.32-.1.46s-.17.28-.3.39c-.33.22-.74.33-1.15.3H0v-4.26h2c.39-.02.78.08 1.1.28.13.1.23.22.3.36s.1.3.08.44a.92.92 0 0 1-.23.65 1.1 1.1 0 0 1-.6.34c.27.04.5.17.68.36zm-2.38-.65h.85c.2.01.38-.04.54-.14.07-.05.12-.12.15-.2s.04-.14.03-.22c0-.08 0-.15-.03-.23s-.08-.13-.15-.19a.9.9 0 0 0-.55-.14H.95v1.12zm1.47 1.64c.07-.06.13-.12.16-.2s.05-.16.04-.24c.01-.08 0-.16-.04-.24s-.1-.14-.16-.2a.95.95 0 0 0-.58-.15h-.9v1.18h.91c.2 0 .4-.05.57-.15zM7.4 28.53l-1.1-1.67h-.42v1.67h-.95v-4.27h1.8c.46-.03.9.1 1.26.36.25.24.4.54.43.86s-.08.65-.3.91a1.5 1.5 0 0 1-.86.43l1.19 1.7H7.4zm-1.52-2.25h.78c.54 0 .81-.21.81-.65.01-.08 0-.17-.04-.25s-.09-.16-.15-.23a.91.91 0 0 0-.62-.17h-.79l.01 1.3zM12.62 27.67h-1.9l-.34.86h-1l1.75-4.22h1.08l1.74 4.22h-1l-.33-.86zm-.25-.65-.7-1.8-.7 1.8h1.4zM19.15 28.53h-.95l-2.12-2.9v2.9h-.95v-4.27h.95l2.12 2.92v-2.92h.95v4.27zM24.55 27.5c-.2.33-.5.6-.86.76-.4.19-.87.28-1.33.27h-1.68v-4.27h1.68c.46 0 .92.08 1.33.26.37.17.66.43.86.75a2.28 2.28 0 0 1 0 2.24zm-1.08-.1c.27-.28.42-.64.42-1.01s-.15-.74-.42-1.02a1.77 1.77 0 0 0-1.19-.36h-.66v2.76h.66c.43.02.86-.1 1.19-.37zM13.21.53S25.43 4.7 25.17 10.7v10.16s-12.2-4.15-11.95-10.16V.53zM36.06 18.48a17.92 17.92 0 0 1 7.77-2.57v-3.19a15.67 15.67 0 0 0-7.77 5.76z"/><path d="M34.67 19.44a16.13 16.13 0 0 1 9.16-7.38V2.89S26.43 8.8 26.79 17.36v14.48s.78-.27 2-.76c0-.47 0-.93.05-1.4a14.6 14.6 0 0 1 5.83-10.24z"/><path d="M33.02 24.82c.1-1 .3-2 .6-2.96a13.29 13.29 0 0 0-3.68 8.74A52.8 52.8 0 0 0 33.3 29c-.3-1.38-.4-2.79-.27-4.19zM33.71 24.87c-.11 1.27-.04 2.54.22 3.8 4.75-2.57 10.1-6.52 9.89-11.3v-.42a16.4 16.4 0 0 0-9.05 3.8c-.58 1.32-.93 2.7-1.06 4.12z"/></symbol><symbol id="icon-client-6" viewBox="0 0 67 32"><path d="M33.8 15.25a2.1 2.1 0 0 1-.43-1.42v-2.05c0-.63.14-1.11.43-1.44s.77-.49 1.47-.49c.65 0 1.12.14 1.39.42.3.36.45.8.41 1.23v.48H35.9v-.49c0-.16 0-.32-.03-.47a.46.46 0 0 0-.17-.29.68.68 0 0 0-.42-.1.71.71 0 0 0-.45.1c-.1.1-.17.2-.2.32-.02.17-.04.34-.04.51v2.5c-.01.23.04.47.15.7.06.07.14.12.24.16s.2.05.3.04c.15.01.3-.03.41-.11a.5.5 0 0 0 .18-.3c.02-.17.04-.34.03-.5v-.51h1.17V14c.03.46-.1.91-.4 1.3-.27.3-.73.45-1.4.45s-1.18-.16-1.47-.5zM38.67 15.27c-.3-.32-.45-.79-.45-1.4V11.7c0-.61.15-1.08.45-1.39s.79-.47 1.48-.47 1.18.16 1.47.47c.3.32.45.78.45 1.39v2.16c0 .6-.15 1.08-.45 1.4s-.79.48-1.47.48-1.18-.16-1.48-.48zm2.02-.52c.11-.2.16-.42.14-.64v-2.64c.02-.22-.03-.43-.13-.63-.06-.08-.15-.14-.24-.17s-.2-.05-.31-.04c-.1-.01-.21 0-.31.04s-.18.1-.24.17c-.1.2-.15.41-.14.63v2.65c-.01.23.03.44.14.64a.79.79 0 0 0 .55.21.75.75 0 0 0 .55-.21zM43.48 9.92h1.26l.94 3.98.97-3.98h1.23l.12 5.75h-.9l-.1-4-.94 4h-.73l-.96-4.01-.1 4.01h-.9l.1-5.75zM49.41 9.92h1.96c1.13 0 1.7.54 1.7 1.63 0 1.04-.6 1.56-1.79 1.56h-.67v2.56h-1.2V9.92zm1.68 2.46a.95.95 0 0 0 .66-.19c.14-.19.2-.42.18-.65 0-.17-.02-.35-.06-.52-.02-.06-.05-.1-.1-.16s-.09-.08-.14-.11c-.17-.07-.36-.1-.54-.1h-.47v1.72h.47zM54.81 9.92h1.3l1.34 5.75h-1.13l-.27-1.33H54.9l-.27 1.33h-1.14l1.33-5.75zm1.11 3.76-.45-2.42-.45 2.42h.9zM58.52 9.92h.85l1.62 3.28V9.92h1v5.75h-.8l-1.63-3.43v3.43h-1.04V9.92zM64.35 13.48 63 9.92h1.14l.82 2.29.77-2.28h1.11l-1.33 3.55v2.2h-1.16v-2.2zM35.67 18.19v.3h-.99v2.33h-.41V18.5h-1v-.3h2.4zM38.76 20.82h-.32c-.03 0-.06 0-.09-.02a.13.13 0 0 1-.05-.06l-.28-.63h-1.38l-.28.63-.04.07a.15.15 0 0 1-.1.02h-.31l1.2-2.63h.43l1.22 2.62zm-2-.98h1.14l-.48-1.07a1.85 1.85 0 0 1-.1-.25c0 .05-.02.1-.04.14l-.04.11-.48 1.08zM40.85 20.57h.23a1.4 1.4 0 0 0 .37-.08l.16-.07v-.6h-.52l-.03-.01-.02-.02v-.23h.94v1a1.9 1.9 0 0 1-.82.28l-.35.01c-.21 0-.42-.03-.61-.1a1.5 1.5 0 0 1-.49-.27 1.26 1.26 0 0 1-.42-.97 1.22 1.22 0 0 1 .42-.97c.14-.11.3-.2.49-.27a2.02 2.02 0 0 1 .98-.07 1.65 1.65 0 0 1 .74.3l-.11.17-.04.03-.06.02-.07-.02a1.81 1.81 0 0 1-.12-.07l-.16-.07a1.52 1.52 0 0 0-1 0c-.13.04-.26.11-.36.2-.1.1-.17.2-.22.33-.1.29-.1.6 0 .88a1.03 1.03 0 0 0 .6.54c.15.05.31.06.47.05zM44.71 20.52h1.32v.3h-1.72v-2.64h.41v2.34zM47.4 20.82H47V18.2h.4v2.63zM48.95 18.2l.06.05 1.77 1.98v-2.06h.36v2.65h-.2a.2.2 0 0 1-.1-.01.23.23 0 0 1-.06-.05L49 18.77v2.05h-.34v-2.64h.21a.2.2 0 0 1 .07.02zM54.19 18.19v.29h-1.47v.87h1.2v.28h-1.2v.9h1.47v.29h-1.9v-2.64h1.9zM10.8 1.9 29.2 6.4v15.78l-18.39-4.5V1.89zM9.63.54v17.9l20.73 5.08V5.63L9.64.54z"/><path d="M20.74 31.83 0 26.75V8.85l20.74 5.09v17.9z"/><path d="m9.97 1.69 18.14 4.45-7.71 6.66L2.25 8.35l7.72-6.66zM9.63.55 0 8.85l20.74 5.09 9.63-8.31L9.63.55zM21.9 30.83l8.47-7.3-8.46-2.08v9.38z"/></symbol><symbol id="icon-instagram" viewBox="0 0 32 32"><path d="M25.58 12.04a7.02 7.02 0 0 0-.44-2.32 4.7 4.7 0 0 0-1.12-1.7 4.71 4.71 0 0 0-1.7-1.11c-.6-.24-1.3-.4-2.32-.45-1.03-.05-1.36-.06-3.96-.06s-2.94.01-3.96.06a7.02 7.02 0 0 0-2.33.44 4.7 4.7 0 0 0-1.7 1.11 4.72 4.72 0 0 0-1.1 1.7c-.25.61-.41 1.31-.46 2.33-.04 1.03-.06 1.36-.06 3.96s.02 2.93.06 3.96c.05 1.02.21 1.72.45 2.33.24.64.62 1.22 1.1 1.7.49.49 1.07.87 1.7 1.1.62.24 1.31.4 2.33.45 1.03.05 1.35.06 3.96.06s2.93-.01 3.96-.06a7.02 7.02 0 0 0 2.33-.44 4.91 4.91 0 0 0 2.8-2.81c.24-.61.4-1.31.45-2.33.05-1.03.06-1.35.06-3.96s0-2.93-.05-3.96zm-1.73 7.84c-.04.94-.2 1.45-.33 1.79-.32.83-.98 1.5-1.82 1.82-.34.13-.85.29-1.78.33-1.02.04-1.32.05-3.88.05s-2.87 0-3.88-.05a5.27 5.27 0 0 1-1.78-.33c-.42-.15-.8-.4-1.1-.72a2.96 2.96 0 0 1-.72-1.1 5.29 5.29 0 0 1-.33-1.78c-.04-1.02-.06-1.32-.06-3.88s.02-2.87.06-3.88c.04-.94.2-1.44.33-1.78.15-.42.4-.8.72-1.1.31-.32.69-.57 1.1-.72.34-.13.85-.29 1.79-.33a67.8 67.8 0 0 1 3.87-.06c2.57 0 2.87.02 3.88.06.94.04 1.45.2 1.78.33.42.15.8.4 1.1.72.33.3.57.68.72 1.1.13.34.3.85.33 1.78.05 1.01.06 1.32.06 3.88s-.01 2.86-.06 3.87z"/><path d="M16.04 11.07a4.93 4.93 0 1 0 0 9.87 4.93 4.93 0 0 0 0-9.87zm0 8.13a3.2 3.2 0 1 1 0-6.4 3.2 3.2 0 0 1 0 6.4zM22.31 10.88a1.15 1.15 0 1 1-2.3 0 1.15 1.15 0 0 1 2.3 0z"/></symbol><symbol id="icon-facebook" viewBox="0 0 32 32"><path d="M21.33 5.31h2.92V.23C23.75.15 22.01 0 19.99 0c-4.2 0-7.1 2.65-7.1 7.52V12H8.26v5.69h4.65V32h5.7V17.69h4.46l.7-5.69H18.6V8.08c0-1.64.45-2.77 2.74-2.77z"/></symbol><symbol id="icon-linkedin" viewBox="0 0 32 32"><path d="M32 32V20.26c0-5.74-1.24-10.16-7.95-10.16-3.23 0-5.39 1.77-6.27 3.45h-.1v-2.92h-6.36V32h6.63V21.42c0-2.79.52-5.48 3.97-5.48 3.4 0 3.45 3.18 3.45 5.66V32H32zM.53 10.64h6.63V32H.53V10.64zM3.84 0C1.72 0 0 1.72 0 3.84s1.72 3.88 3.84 3.88A3.88 3.88 0 0 0 7.7 3.84 3.85 3.85 0 0 0 3.84 0z"/></symbol><symbol id="icon-twitter" viewBox="0 0 32 32"><path d="M32 6.08c-1.19.52-2.46.87-3.78 1.03a6.52 6.52 0 0 0 2.89-3.62 13.11 13.11 0 0 1-4.16 1.59 6.57 6.57 0 0 0-11.2 5.98A18.57 18.57 0 0 1 2.23 4.2a6.57 6.57 0 0 0 2.02 8.77 6.48 6.48 0 0 1-2.97-.81v.07a6.59 6.59 0 0 0 5.26 6.44 6.55 6.55 0 0 1-2.97.1 6.62 6.62 0 0 0 6.13 4.58 13.18 13.18 0 0 1-9.7 2.7A18.47 18.47 0 0 0 10.06 29c12.08 0 18.68-10 18.68-18.67 0-.29-.01-.57-.03-.85 1.3-.92 2.4-2.07 3.29-3.4z"/></symbol><symbol id="icon-features-1" viewBox="0 0 32 32"><path fill="#2e2f42" d="m30.77 22.1-8.44-8.5.94-4.62c.24.1.5.14.75.14h.01a2.16 2.16 0 1 0-2-1.43l-4.97.6L8.97.16A.53.53 0 0 0 8.6 0a.53.53 0 0 0-.37.16l-1.51 1.5c-.2.2-.2.55 0 .75l.81.83a14.94 14.94 0 0 0 2.52 17.66c.05.04.1.08.15.1-.04.18-.05.36-.05.55v6.18h-6.4a2.67 2.67 0 0 0-2.67 2.67v1.07c0 .3.24.53.53.53h24.54c.29 0 .53-.24.53-.53V30.4c0-1.47-1.2-2.66-2.67-2.66h-6.4v-2.75a14.85 14.85 0 0 0 10.09-1.46l.82.82a.53.53 0 0 0 .75 0l1.51-1.5c.2-.2.2-.54 0-.75zM23.28 6.23a1.07 1.07 0 1 1 .75 1.82 1.07 1.07 0 0 1-.75-1.82zm-1.26 3.5-.6 2.95-1.17-1.18 1.78-1.76zm-.6-.9-1.92 1.92L18 9.25l3.4-.41zM24 28.8c.89 0 1.6.72 1.6 1.6v.53H2.14v-.53c0-.88.71-1.6 1.6-1.6H24zm-7.46-2.13v1.06H11.2v-1.06h5.34zM11.2 25.6v-4.05c0-1.3 1.2-2.35 2.67-2.35s2.67 1.05 2.67 2.35v4.05H11.2zm6.4-1.7v-2.35c0-1.89-1.67-3.42-3.73-3.42a3.8 3.8 0 0 0-3.28 1.79A13.87 13.87 0 0 1 8.31 4.03l18.6 18.71a13.82 13.82 0 0 1-9.3 1.16zm11.3-.68L7.83 2.04l.75-.75 7.94 7.98 13.12 13.2-.76.75z" style="fill:var(--color3, #2e2f42)"/><path fill="#4d5ae5" d="M13.88 20.27a1.6 1.6 0 1 0-.01 3.2 1.6 1.6 0 1 0 0-3.2zm.37 1.98c-.1.1-.24.15-.38.15a.53.53 0 0 1 0-1.07.53.53 0 0 1 .37.92z" style="fill:var(--color4, #4d5ae5)"/></symbol><symbol id="icon-features-2" viewBox="0 0 32 32"><path fill="#2e2f42" d="M31.3 15.3a15.3 15.3 0 1 0-19.96 14.58l.18.03c.12 0 .24-.03.35-.1.13-.07.23-.2.28-.35L16 17.21a1.91 1.91 0 1 0-.84-3.63l-5.1-5.1a.64.64 0 0 0-.9.9l5.1 5.1c-.4.8-.17 1.77.53 2.31l-3.68 11.67a14.04 14.04 0 1 1 10.57-.35l-.4-1.87a.64.64 0 0 0-1.05-.34l-3.83 3.42a.64.64 0 0 0 .23 1.09l4.9 1.56a.64.64 0 0 0 .82-.74l-.4-1.84A15.26 15.26 0 0 0 31.3 15.3zM16 14.66a.64.64 0 1 1 0 1.28.64.64 0 0 1 0-1.28zm2.1 14.87 2.18-1.95.6 2.84-2.79-.9z" style="fill:var(--color3, #2e2f42)"/><path fill="#4d5ae5" d="M15.35 3.19v1.27a.64.64 0 1 0 1.28 0V3.19a.64.64 0 0 0-1.28 0zM3.88 14.66a.64.64 0 0 0 0 1.28h1.27a.64.64 0 1 0 0-1.28H3.88zM28.1 15.94a.64.64 0 1 0 0-1.28h-1.27a.64.64 0 0 0 0 1.28h1.28z" style="fill:var(--color4, #4d5ae5)"/></symbol><symbol id="icon-features-3" viewBox="0 0 32 32"><path fill="#4d5ae5" d="M14.93 14.96h1.06v4.8h-1.06v-4.8zM19.19 17.1h1.07v2.66h-1.07V17.1zM10.66 18.7h1.07v1.06h-1.07V18.7zM7.46 18.16h1.07v1.6H7.46v-1.6z" style="fill:var(--color4, #4d5ae5)"/><path fill="#2e2f42" d="M1.6 28.3h25.59c.88 0 1.6-.73 1.6-1.6v-2.14c0-.88-.72-1.6-1.6-1.6h-.54V9.66l3.03-2.86a1.6 1.6 0 1 0-.75-.76L26.65 8.2V6.97c0-.88-.71-1.6-1.6-1.6H3.73c-.88 0-1.6.72-1.6 1.6v16H1.6c-.88 0-1.6.7-1.6 1.6v2.12c0 .89.72 1.6 1.6 1.6zM30.38 4.83a.53.53 0 1 1 0 1.06.53.53 0 0 1 0-1.06zM3.2 6.97c0-.3.24-.53.53-.53h21.32c.3 0 .54.23.54.53V9.2l-1.07 1.01V8.03c0-.29-.24-.53-.53-.53H4.79c-.29 0-.53.24-.53.53v13.33c0 .3.24.53.54.53h19.19c.3 0 .53-.23.53-.53V11.7l1.07-1.01v12.28H3.19v-16zM8 13.9a1.6 1.6 0 1 0 1.1 2.75l1.86.93c.21.1.47.06.63-.12l3.94-4.44 3.87 2.9c.21.16.5.14.69-.03l3.36-3.2v8.14H5.33V8.57h18.12v2.66l-3.77 3.57-3.9-2.93a.53.53 0 0 0-.72.08l-4 4.49-1.49-.75c.02-.06.02-.13.02-.19 0-.88-.71-1.6-1.6-1.6zm.53 1.6a.53.53 0 1 1-1.07 0 .53.53 0 0 1 1.07 0zm3.2 8.53h5.33v.53c0 .3-.24.53-.53.53h-4.27a.53.53 0 0 1-.53-.53v-.53zm-10.66.53c0-.3.24-.53.53-.53h9.06v.53c0 .88.72 1.6 1.6 1.6h4.26c.89 0 1.6-.72 1.6-1.6v-.53h9.06c.3 0 .54.24.54.53v2.13c0 .3-.24.53-.53.53H1.59a.53.53 0 0 1-.52-.53v-2.13z" style="fill:var(--color3, #2e2f42)"/></symbol><symbol id="icon-features-4" viewBox="0 0 32 32"><path fill="#4d5ae5" d="M31.97 4.52a.53.53 0 0 0-.43-.36l-1.9-.28-.86-1.73c-.18-.36-.78-.36-.96 0l-.85 1.73-1.91.28a.54.54 0 0 0-.3.91l1.38 1.35-.32 1.9c-.04.2.05.4.21.52.17.12.38.14.56.04l1.71-.9 1.71.9a.54.54 0 0 0 .78-.56l-.33-1.9 1.38-1.35c.15-.14.2-.35.14-.55zm-2.46 1.33a.53.53 0 0 0-.15.47l.19 1.12-1-.53a.53.53 0 0 0-.5 0l-1 .53.2-1.12a.53.53 0 0 0-.16-.47l-.81-.79 1.12-.16a.53.53 0 0 0 .4-.3l.5-1 .5 1c.08.16.23.27.4.3l1.12.16-.8.8zM26.13 20.52h-1.06v1.07h1.06v-1.07zM26.13 22.66h-1.06v1.06h1.06v-1.06zM27.2 21.59h-1.07v1.07h1.07v-1.07zM25.07 21.59H24v1.07h1.07v-1.07zM22.4 26.39h-1.07v1.07h1.07v-1.07zM22.4 28.52h-1.07v1.07h1.07v-1.07zM23.47 27.46H22.4v1.06h1.07v-1.06zM21.33 27.46h-1.06v1.06h1.06v-1.06zM16 24.26h-1.07v1.06H16v-1.06zM16 26.39h-1.07v1.07H16v-1.07zM17.07 25.32H16v1.07h1.07v-1.07zM14.93 25.32h-1.06v1.07h1.06v-1.07zM5.87 6.12H4.8V7.2h1.07V6.12zM5.87 8.26H4.8v1.06h1.07V8.26zM6.93 7.19H5.87v1.07h1.06V7.19zM4.8 7.19H3.73v1.07H4.8V7.19z" style="fill:var(--color4, #4d5ae5)"/><path fill="#2e2f42" d="M24.71 14.16c-.28-.39-.7-.64-1.18-.7-.48-.07-.96.05-1.34.35l-1.26.96-1.9 1.41-1.35-.54A6.94 6.94 0 0 0 14.83 2.4a6.96 6.96 0 0 0-6.96 6.93c0 1.39.42 2.68 1.12 3.76l-2.76-.02H6.2l-.16.03-.03.02h-.02l-3.24 1.6-1.89.9a1.78 1.78 0 0 0 .93 3.3c.3.01.58-.06.84-.2l1.4-.74 2.26-1.17h1.35L2.2 22.2.86 23.55a1.65 1.65 0 0 0 0 2.35 1.67 1.67 0 0 0 2.36 0l1.31-1.3 1.74-1.3.9.89-1.76 1.75-1.34 1.34a1.65 1.65 0 0 0 0 2.36 1.67 1.67 0 0 0 2.36 0l3.48-3.47 1.01-1 .02-.02 5.17-5.66 3.47.5h.07c.07 0 .13-.02.2-.04l.04-.02.06-.03 3.21-2.13.03-.03.04-.03 1.27-1.19c.67-.62.76-1.63.22-2.36zM2.14 17.77a.71.71 0 0 1-.56.05.72.72 0 0 1-.21-1.26l1.31-.63.45 1.31-.99.53zm3.5-1.83-1.55.8-.44-1.28 2.03-1-.04 1.48zm15.1-6.62c0 .92-.22 1.79-.6 2.56l-4.18-1.9a1.86 1.86 0 0 0-.8-1.39l1.47-4.86a5.88 5.88 0 0 1 4.1 5.6zm-11.8 0a5.89 5.89 0 0 1 6.65-5.81l-1.44 4.75h-.05a1.87 1.87 0 1 0 0 3.73c.7 0 1.3-.38 1.62-.95l3.86 1.76A5.9 5.9 0 0 1 8.94 9.32zm5.96.8a.8.8 0 0 1-1.6 0 .8.8 0 0 1 1.6 0zM2.46 25.15a.6.6 0 0 1-.85 0 .6.6 0 0 1 0-.85l.96-.95.85.84-.96.96zm3.22 3.73a.6.6 0 0 1-.86 0 .6.6 0 0 1 0-.84l.97-.96.85.85-.96.95zm3.48-3.47-1.77 1.76-.85-.85 1.76-1.75c.05-.04.07-.09.1-.14l.02-.04c.02-.04.02-.08.03-.13l.01-.07-.02-.1c0-.04 0-.07-.02-.1a.55.55 0 0 0-.09-.14l-.02-.04-1.61-1.6-.06-.04a.5.5 0 0 0-.09-.05.51.51 0 0 0-.09-.04.5.5 0 0 0-.1-.02.5.5 0 0 0-.1 0l-.1.03a.48.48 0 0 0-.1.04l-.06.03-1.77 1.33-.9-.9 2.4-2.39 4.36 4.3-.93.91zm6.82-7.02h-.05a.56.56 0 0 0-.3.08.5.5 0 0 0-.08.06l-.04.03-4.7 5.15-4.33-4.26 2.84-2.82a.53.53 0 0 0-.38-.9H6.72l.03-1.6 3.1.02a6.95 6.95 0 0 0 6.26 1.98c.04.03.08.07.13.09l2.41.96.15.75.18.89-3-.43zm4.04.18-.31-1.56 1.44-1.08.95 1.26-2.08 1.38zm3.75-2.83-.83.79-.94-1.24.84-.64a.73.73 0 0 1 .54-.14.72.72 0 0 1 .4 1.23z" style="fill:var(--color3, #2e2f42)"/><path fill="#2e2f42" d="m13.6 18.54-2.14-2.13a.53.53 0 0 0-.75 0l-2.15 2.13a.54.54 0 0 0 0 .76l2.15 2.13a.54.54 0 0 0 .75 0l2.14-2.13a.54.54 0 0 0 0-.76zm-2.52 1.76L9.7 18.92l1.38-1.38 1.39 1.38-1.39 1.38zM17.16 5.07l-.25 1.04c.07.01 1.73.45 1.73 2.15h1.07c0-2.02-1.66-2.97-2.55-3.19zM19.71 9.32h-1.07v1.07h1.07V9.32z" style="fill:var(--color3, #2e2f42)"/></symbol><symbol id="icon-x-mark" viewBox="0 0 32 32"><path d="M32 3.22 28.78 0 16 12.78 3.22 0 0 3.22 12.78 16 0 28.78 3.22 32 16 19.22 28.78 32 32 28.78 19.22 16 32 3.22z"/></symbol></defs></svg>